<?xml version="1.0" encoding="utf-8"?>
<!-- Generator: Adobe Illustrator 16.0.0, SVG Export Plug-In . SVG Version: 6.00 Build 0)  -->
<!DOCTYPE svg PUBLIC "-//W3C//DTD SVG 1.1//EN" "http://www.w3.org/Graphics/SVG/1.1/DTD/svg11.dtd">
<svg version="1.1" id="Layer_1" xmlns="http://www.w3.org/2000/svg" xmlns:xlink="http://www.w3.org/1999/xlink" x="0px" y="0px"
	 width="1136.637px" height="643.182px" viewBox="0 0 1136.637 643.182" enable-background="new 0 0 1136.637 643.182"
	 xml:space="preserve">
<rect id="backgroundrect" x="0" y="0" fill="none" width="1136.637" height="643.182"/>
<g>
	<title>Layer 1</title>
	<path id="svg_1" opacity="0.21" fill="#3C74F3" enable-background="new    " d="M650.4,132.757
		c-70.76,0.54-138.729-15.45-203.729-33.27c-65-17.82-129.471-37.83-198.841-46c-44.62-5.28-95.399-4.45-130.479,16
		c-33.75,19.66-43.73,51.88-48.66,81.62c-3.71,22.38-5.521,45.859,7.54,66.229c9.07,14.13,24.689,25.73,35.68,39.19
		c38.26,46.84,14.54,107.109-23.399,155.51c-17.771,22.67-38.57,44.489-52.11,68.489s-19.18,51.11-5.79,74.601
		c13.28,23.29,43.54,40.06,76.08,51.45c66.1,23.14,143.17,27.699,218.23,29.17c166.14,3.239,332.71-6.641,498.819-16.511
		c61.48-3.649,123.23-7.329,183.48-17.149c33.46-5.45,67.93-13.43,91.75-30.601c30.239-21.8,36.68-57.119,15-82.34
		c-36.37-42.29-133-49.68-159-95.529c-14.311-25.24-1.57-54.37,17-78.91c39.939-52.65,108.34-100,109.95-158.63
		c1.109-40.25-34-79.28-86.681-96.431c-55.24-18-130.78-12.789-169.84,21.62C785.24,116.637,712.9,132.287,650.4,132.757z"/>
	<path id="svg_38" opacity="0.24" fill="#FFFFFF" enable-background="new    " d="M969.75,31.19v518.42c0,15.41-14.87,28-33.23,28
		h-703.37c-18.359,0-33.229-12.54-33.229-28V31.19C199.92,15.75,214.79,0,233.149,0l703.33,1.71
		C954.84,1.71,969.75,15.8,969.75,31.19z"/>
	<path id="svg_39" fill="#3F3D56" d="M969.85,31.35v24H200.02v-24C200.02,14.035,214.055,0,231.37,0c0.01,0,0.021,0,0.03,0h707.11
		C955.82,0.005,969.85,14.039,969.85,31.35z"/>
	<circle id="svg_40" opacity="0.8" fill="#FA5959" enable-background="new    " cx="237.32" cy="27.67" r="11.08"/>
	<circle id="svg_41" opacity="0.8" fill="#FED253" enable-background="new    " cx="269.55" cy="27.67" r="11.08"/>
	<circle id="svg_42" opacity="0.8" fill="#8CCF4D" enable-background="new    " cx="301.78" cy="27.67" r="11.08"/>
</g>
<g>
	<g>
		<rect x="272.424" y="446.937" fill="#E2E2E2" width="570.184" height="2.074"/>
	</g>
	<g>
		<rect x="272.424" y="354.811" fill="#E2E2E2" width="570.184" height="2.074"/>
	</g>
	<g>
		<rect x="272.424" y="262.684" fill="#E2E2E2" width="570.184" height="2.076"/>
	</g>
	<g>
		<rect x="272.424" y="170.559" fill="#E2E2E2" width="570.184" height="2.076"/>
	</g>
	<g>
		<rect x="272.424" y="400.077" fill="#E2E2E2" width="570.184" height="2.076"/>
	</g>
	<g>
		<rect x="272.424" y="307.952" fill="#E2E2E2" width="570.184" height="2.076"/>
	</g>
	<g>
		<rect x="272.424" y="215.826" fill="#E2E2E2" width="570.184" height="2.076"/>
	</g>
	<g>
		<rect x="272.424" y="123.7" fill="#E2E2E2" width="570.184" height="2.076"/>
	</g>
	<g>
		<rect x="272.424" y="493.001" fill="#E2E2E2" width="570.184" height="2.074"/>
	</g>
	<g>
		<rect x="255.903" y="446.937" fill="#959595" width="33.044" height="2.074"/>
	</g>
	<g>
		<rect x="255.903" y="354.811" fill="#959595" width="33.044" height="2.074"/>
	</g>
	<g>
		<rect x="255.903" y="262.684" fill="#959595" width="33.044" height="2.076"/>
	</g>
	<g>
		<rect x="255.903" y="170.559" fill="#959595" width="33.044" height="2.076"/>
	</g>
	<g>
		<rect x="255.903" y="539.062" fill="#959595" width="33.044" height="2.076"/>
	</g>
	<g>
		<path fill="#959595" d="M235.587,537.822c-1.196-1.684-1.792-4.133-1.792-7.357c0-3.166,0.596-5.584,1.792-7.258
			c1.199-1.672,2.938-2.512,5.224-2.512c2.283,0,4.024,0.834,5.221,2.498c1.196,1.666,1.795,4.09,1.795,7.271
			c0,3.205-0.599,5.652-1.795,7.342c-1.196,1.693-2.938,2.537-5.221,2.537C238.524,540.343,236.786,539.501,235.587,537.822z
			 M243.521,535.906c0.566-1.145,0.853-2.955,0.853-5.441c0-2.443-0.286-4.229-0.853-5.355c-0.566-1.125-1.47-1.688-2.711-1.688
			s-2.145,0.562-2.714,1.688c-0.566,1.127-0.85,2.912-0.85,5.355c0,2.486,0.283,4.297,0.85,5.441
			c0.569,1.141,1.473,1.713,2.714,1.713S242.955,537.046,243.521,535.906z"/>
	</g>
	<g>
		<path fill="#959595" d="M231.312,454.759v2.836h-12.9v-2.564l6.531-7.043c0.771-0.844,1.338-1.621,1.699-2.32
			c0.358-0.701,0.539-1.395,0.539-2.078c0-0.883-0.256-1.549-0.768-1.996c-0.516-0.449-1.248-0.676-2.199-0.676
			c-1.693,0-3.429,0.666-5.209,1.998l-1.16-2.537c0.754-0.684,1.727-1.229,2.913-1.633c1.188-0.404,2.384-0.609,3.592-0.609
			c1.925,0,3.449,0.475,4.572,1.42c1.124,0.943,1.688,2.217,1.688,3.816c0,1.1-0.238,2.133-0.717,3.104
			c-0.477,0.973-1.271,2.061-2.387,3.266l-4.724,5.018H231.312z"/>
		<path fill="#959595" d="M245.019,446.087c0.918,0.512,1.629,1.232,2.133,2.156c0.503,0.928,0.756,1.994,0.756,3.199
			c0,1.26-0.289,2.371-0.865,3.332c-0.575,0.965-1.403,1.709-2.481,2.242c-1.079,0.529-2.329,0.795-3.751,0.795
			c-1.205,0-2.395-0.201-3.563-0.609c-1.169-0.402-2.13-0.949-2.887-1.633l1.16-2.535c1.744,1.33,3.524,1.996,5.345,1.996
			c1.205,0,2.126-0.301,2.765-0.904c0.639-0.602,0.958-1.461,0.958-2.574c0-1.064-0.328-1.914-0.984-2.553
			c-0.657-0.639-1.533-0.957-2.63-0.957c-0.757,0-1.468,0.139-2.134,0.418c-0.665,0.277-1.25,0.688-1.753,1.227h-2.105V438.38
			h12.035v2.699h-8.634v5.236c0.97-0.666,2.12-1,3.452-1C243.04,445.316,244.103,445.572,245.019,446.087z"/>
	</g>
	<g>
		<path fill="#959595" d="M228.83,353.918c0.916,0.514,1.627,1.232,2.13,2.16c0.506,0.926,0.756,1.992,0.756,3.197
			c0,1.258-0.289,2.369-0.864,3.332c-0.576,0.965-1.401,1.71-2.482,2.241c-1.079,0.529-2.329,0.797-3.751,0.797
			c-1.205,0-2.392-0.205-3.561-0.607c-1.169-0.406-2.133-0.95-2.89-1.634l1.16-2.535c1.744,1.33,3.527,1.996,5.345,1.996
			c1.205,0,2.126-0.301,2.765-0.904s0.959-1.461,0.959-2.578c0-1.062-0.329-1.912-0.985-2.551c-0.657-0.639-1.533-0.957-2.63-0.957
			c-0.757,0-1.468,0.141-2.133,0.418c-0.666,0.279-1.251,0.689-1.754,1.229h-2.105v-11.309h12.038v2.699h-8.637v5.234
			c0.973-0.664,2.124-0.996,3.455-0.996C226.85,353.151,227.911,353.406,228.83,353.918z"/>
		<path fill="#959595" d="M235.587,363.147c-1.196-1.68-1.792-4.131-1.792-7.354c0-3.166,0.596-5.584,1.792-7.258
			c1.199-1.674,2.938-2.512,5.224-2.512c2.283,0,4.024,0.836,5.221,2.498c1.196,1.664,1.795,4.09,1.795,7.271
			c0,3.205-0.599,5.65-1.795,7.34c-1.196,1.694-2.938,2.538-5.221,2.538C238.524,365.671,236.786,364.829,235.587,363.147z
			 M243.521,361.233c0.566-1.143,0.853-2.955,0.853-5.439c0-2.445-0.286-4.23-0.853-5.355s-1.47-1.688-2.711-1.688
			s-2.145,0.562-2.714,1.688c-0.566,1.125-0.85,2.91-0.85,5.355c0,2.484,0.283,4.297,0.85,5.439
			c0.569,1.143,1.473,1.713,2.714,1.713S242.955,362.375,243.521,361.233z"/>
	</g>
	<g>
		<path fill="#959595" d="M220.68,254.212h12.155v2.353l-7.916,15.096h-3.384l7.894-14.876h-8.749V254.212z"/>
		<path fill="#959595" d="M245.287,261.208c0.832,0.465,1.477,1.119,1.934,1.961c0.458,0.84,0.688,1.809,0.688,2.904
			c0,1.144-0.262,2.153-0.786,3.026c-0.521,0.875-1.271,1.553-2.254,2.035c-0.979,0.48-2.114,0.723-3.407,0.723
			c-1.094,0-2.172-0.185-3.232-0.551c-1.063-0.368-1.937-0.861-2.624-1.484l1.055-2.303c1.585,1.208,3.202,1.813,4.854,1.813
			c1.093,0,1.931-0.273,2.509-0.821c0.582-0.548,0.871-1.327,0.871-2.341c0-0.964-0.299-1.737-0.895-2.317
			c-0.597-0.58-1.393-0.869-2.389-0.869c-0.688,0-1.332,0.126-1.935,0.379c-0.605,0.253-1.139,0.625-1.594,1.115h-1.913v-10.269
			h10.93v2.451h-7.842v4.754c0.883-0.604,1.928-0.907,3.137-0.907C243.488,260.51,244.453,260.743,245.287,261.208z"/>
	</g>
	<g>
		<path fill="#959595" d="M214.767,177.899h3.76v2.545h-10.641v-2.545h3.777v-11.125l-3.513,2.109v-2.787l4.8-2.908h1.816V177.899z"
			/>
		<path fill="#959595" d="M222.293,178.396c-1.073-1.511-1.612-3.711-1.612-6.605c0-2.844,0.539-5.018,1.612-6.519
			c1.075-1.503,2.639-2.255,4.69-2.255c2.051,0,3.614,0.749,4.69,2.243c1.075,1.494,1.611,3.672,1.611,6.531
			c0,2.877-0.536,5.075-1.611,6.593c-1.076,1.52-2.64,2.279-4.69,2.279C224.931,180.663,223.368,179.906,222.293,178.396z
			 M229.42,176.676c0.51-1.027,0.763-2.654,0.763-4.885c0-2.196-0.253-3.8-0.763-4.811c-0.509-1.009-1.322-1.515-2.437-1.515
			c-1.115,0-1.925,0.506-2.438,1.515c-0.506,1.011-0.762,2.615-0.762,4.811c0,2.231,0.256,3.857,0.762,4.885
			c0.513,1.026,1.322,1.538,2.438,1.538C228.097,178.214,228.911,177.701,229.42,176.676z"/>
		<path fill="#959595" d="M236.834,178.396c-1.072-1.511-1.611-3.711-1.611-6.605c0-2.844,0.539-5.018,1.611-6.519
			c1.075-1.503,2.639-2.255,4.69-2.255s3.615,0.749,4.69,2.243c1.076,1.494,1.611,3.672,1.611,6.531
			c0,2.877-0.535,5.075-1.611,6.593c-1.075,1.52-2.639,2.279-4.69,2.279S237.909,179.906,236.834,178.396z M243.962,176.676
			c0.509-1.027,0.762-2.654,0.762-4.885c0-2.196-0.253-3.8-0.762-4.811c-0.51-1.009-1.323-1.515-2.438-1.515
			s-1.925,0.506-2.434,1.515c-0.51,1.011-0.766,2.615-0.766,4.811c0,2.231,0.256,3.857,0.766,4.885
			c0.509,1.026,1.319,1.538,2.434,1.538S243.452,177.701,243.962,176.676z"/>
	</g>
	<g>
		<polygon fill="#959595" points="842.607,541.138 271.387,541.138 271.387,124.738 273.463,124.738 273.463,539.062 
			842.607,539.062 		"/>
	</g>
</g>
<g>
	<g>
		<g>
			<rect x="783.719" y="480.222" fill="#BB7B48" width="96.423" height="80.93"/>
			<rect x="783.719" y="480.222" fill="#B27545" width="17.672" height="80.93"/>
		</g>
		<g>
			<rect x="768.747" y="480.296" fill="#C5804D" width="28.443" height="80.855"/>
			<polygon fill="#A76E40" points="803.327,471.193 762.61,471.193 768.747,480.296 797.19,480.296 			"/>
			<polygon fill="#C5804D" points="803.327,471.193 762.61,471.193 771.815,462.482 794.122,462.482 			"/>
			<rect x="778.041" y="488.724" fill="#BE7D4A" width="9.858" height="64.002"/>
			<rect x="768.254" y="483.111" fill="#A76E40" width="29.439" height="1.15"/>
			<rect x="761.545" y="470.411" fill="#CC9064" width="42.858" height="1.893"/>
			<polygon fill="#A76E40" points="798.191,459.636 767.748,459.636 771.815,462.482 794.122,462.482 			"/>
			<polygon fill="#C5804D" points="798.191,459.636 767.748,459.636 770.349,454.224 795.901,454.224 			"/>
			<rect x="766.79" y="459.232" fill="#CC9064" width="32.366" height="0.979"/>
		</g>
	</g>
	<g>
		<g>
			<rect x="939.947" y="480.222" fill="#BB7B48" width="96.425" height="80.93"/>
			<rect x="1018.698" y="480.222" fill="#B27545" width="17.674" height="80.93"/>
		</g>
		<g>
			<rect x="1022.899" y="480.296" fill="#C5804D" width="28.443" height="80.855"/>
			<polygon fill="#A76E40" points="1016.762,471.193 1057.479,471.193 1051.343,480.296 1022.899,480.296 			"/>
			<polygon fill="#C5804D" points="1016.762,471.193 1057.479,471.193 1048.274,462.482 1025.969,462.482 			"/>
			<rect x="1032.191" y="488.724" fill="#BE7D4A" width="9.858" height="64.002"/>
			<rect x="1022.397" y="483.111" fill="#A76E40" width="29.44" height="1.15"/>
			<rect x="1015.686" y="470.411" fill="#CC9064" width="42.858" height="1.893"/>
			<polygon fill="#A76E40" points="1021.899,459.636 1052.342,459.636 1048.274,462.482 1025.969,462.482 			"/>
			<polygon fill="#C5804D" points="1021.899,459.636 1052.342,459.636 1049.742,454.224 1024.189,454.224 			"/>
			<rect x="1020.934" y="459.232" fill="#CC9064" width="32.365" height="0.979"/>
		</g>
	</g>
	<g>
		<rect x="884.915" y="492.937" fill="#895A32" width="53.035" height="68.215"/>
		<g>
			<rect x="884.915" y="499.386" fill="#9E683C" width="53.035" height="6.131"/>
			<rect x="884.915" y="511.704" fill="#9E683C" width="53.035" height="6.131"/>
			<rect x="884.915" y="524.021" fill="#9E683C" width="53.035" height="6.129"/>
			<rect x="884.915" y="536.335" fill="#9E683C" width="53.035" height="6.131"/>
			<rect x="884.915" y="548.654" fill="#9E683C" width="53.035" height="6.129"/>
		</g>
	</g>
	<g>
		<rect x="947.055" y="340.8" fill="#9E683C" width="15.841" height="118.041"/>
		<rect x="941.252" y="340.8" fill="#B57746" width="15.841" height="118.041"/>
		<rect x="934.039" y="340.8" fill="#C5804D" width="15.84" height="118.041"/>
		<rect x="857.192" y="340.8" fill="#9E683C" width="15.842" height="118.041"/>
		<g>
			<polygon fill="#895A32" points="873.034,458.841 857.192,458.841 812.633,513.269 873.034,513.269 			"/>
		</g>
		<rect x="862.998" y="340.8" fill="#B57746" width="15.841" height="118.041"/>
		<g>
			<polygon fill="#9E683C" points="878.839,458.841 862.998,458.841 836.711,513.269 878.839,513.269 			"/>
		</g>
		<rect x="870.211" y="340.8" fill="#C5804D" width="15.841" height="118.041"/>
		<g>
			<polygon fill="#B57746" points="886.052,458.841 870.211,458.841 855.212,513.269 886.052,513.269 			"/>
			<g>
				<polygon fill="#956238" points="860.344,494.646 860.015,495.835 886.052,495.835 886.052,494.646 				"/>
				<polygon fill="#956238" points="862.875,485.466 862.546,486.656 886.052,486.656 886.052,485.466 				"/>
				<polygon fill="#956238" points="861.608,490.056 861.282,491.245 886.052,491.245 886.052,490.056 				"/>
				<polygon fill="#956238" points="886.052,509.607 886.052,508.415 856.55,508.415 856.22,509.607 				"/>
				<polygon fill="#956238" points="859.08,499.234 858.751,500.425 886.052,500.425 886.052,499.234 				"/>
				<polygon fill="#956238" points="857.813,503.827 857.487,505.017 886.052,505.017 886.052,503.827 				"/>
				<polygon fill="#956238" points="869.2,462.513 868.871,463.704 886.052,463.704 886.052,462.513 				"/>
				<polygon fill="#956238" points="867.933,467.105 867.606,468.296 886.052,468.296 886.052,467.105 				"/>
				<polygon fill="#956238" points="864.138,480.874 863.81,482.064 886.052,482.064 886.052,480.874 				"/>
				<polygon fill="#956238" points="865.405,476.284 865.076,477.474 886.052,477.474 886.052,476.284 				"/>
				<polygon fill="#956238" points="866.669,471.695 866.341,472.886 886.052,472.886 886.052,471.695 				"/>
			</g>
		</g>
		<g>
			<polygon fill="#895A32" points="947.055,458.841 962.896,458.841 1007.457,513.269 947.055,513.269 			"/>
		</g>
		<g>
			<polygon fill="#9E683C" points="941.252,458.841 957.093,458.841 983.38,513.269 941.252,513.269 			"/>
		</g>
		<g>
			<polygon fill="#B57746" points="934.039,458.841 949.879,458.841 964.878,513.269 934.039,513.269 			"/>
			<g>
				<polygon fill="#956238" points="959.746,494.646 960.074,495.835 934.039,495.835 934.039,494.646 				"/>
				<polygon fill="#956238" points="957.216,485.466 957.544,486.656 934.039,486.656 934.039,485.466 				"/>
				<polygon fill="#956238" points="958.48,490.056 958.808,491.245 934.039,491.245 934.039,490.056 				"/>
				<polygon fill="#956238" points="934.039,509.607 934.039,508.415 963.541,508.415 963.869,509.607 				"/>
				<polygon fill="#956238" points="961.01,499.234 961.339,500.425 934.039,500.425 934.039,499.234 				"/>
				<polygon fill="#956238" points="962.276,503.827 962.603,505.017 934.039,505.017 934.039,503.827 				"/>
				<polygon fill="#956238" points="950.89,462.513 951.219,463.704 934.039,463.704 934.039,462.513 				"/>
				<polygon fill="#956238" points="952.155,467.105 952.483,468.296 934.039,468.296 934.039,467.105 				"/>
				<polygon fill="#956238" points="955.951,480.874 956.278,482.064 934.039,482.064 934.039,480.874 				"/>
				<polygon fill="#956238" points="954.685,476.284 955.013,477.474 934.039,477.474 934.039,476.284 				"/>
				<polygon fill="#956238" points="953.421,471.695 953.75,472.886 934.039,472.886 934.039,471.695 				"/>
			</g>
		</g>
	</g>
	<g>
		<g>
			<rect x="855.272" y="334.554" fill="#926036" width="109.545" height="7.111"/>
			<rect x="849.128" y="328.466" fill="#9B663B" width="121.836" height="7.113"/>
			<rect x="842.525" y="322.568" fill="#A56D3F" width="135.04" height="7.113"/>
			<rect x="834.728" y="317.316" fill="#AE7343" width="150.631" height="7.111"/>
		</g>
		<rect x="870.211" y="321.89" fill="#C5804D" width="79.668" height="34.17"/>
		<rect x="865.75" y="340.126" fill="#DC9966" width="88.59" height="5.396"/>
		<rect x="870.211" y="349.159" fill="#B97948" width="79.668" height="3.451"/>
	</g>
	<g>
		<rect x="810.025" y="519.304" fill="#9E683C" width="76.026" height="36.137"/>
		<rect x="835.344" y="519.304" fill="#B57746" width="50.708" height="36.137"/>
		<rect x="855.112" y="519.304" fill="#C5804D" width="30.939" height="36.137"/>
		<rect x="810.025" y="527.204" fill="#A46F46" width="76.026" height="3.34"/>
		<rect x="810.025" y="544.081" fill="#A46F46" width="76.026" height="3.34"/>
		<rect x="803.57" y="512.97" fill="#CC9064" width="82.481" height="8.172"/>
		<rect x="803.57" y="552.982" fill="#CC9064" width="82.481" height="8.17"/>
	</g>
	<g>
		<rect x="934.039" y="519.304" fill="#9E683C" width="76.025" height="36.137"/>
		<rect x="934.039" y="519.304" fill="#B57746" width="50.705" height="36.137"/>
		<rect x="934.039" y="519.304" fill="#C5804D" width="30.94" height="36.137"/>
		<rect x="934.039" y="527.204" fill="#A46F46" width="76.025" height="3.34"/>
		<rect x="934.039" y="544.081" fill="#A46F46" width="76.025" height="3.34"/>
		<rect x="934.039" y="512.97" fill="#CC9064" width="82.48" height="8.172"/>
		<rect x="934.039" y="552.982" fill="#CC9064" width="82.48" height="8.17"/>
	</g>
	<g>
		<polygon fill="#C5804D" points="928.931,153.899 891.159,153.899 893.573,129.439 926.518,129.439 		"/>
		<polygon fill="#BC7C49" points="910.046,133.049 898.328,153.345 921.762,153.345 		"/>
		<path fill="#6D4625" d="M933.505,159.535h-46.92c-10.308,103.498-42.501,151.893-42.501,151.893h131.922
			C976.006,311.428,943.813,263.032,933.505,159.535z"/>
		<path fill="#DC9966" d="M977.025,308.791h-133.96c0,0-2.79-5.581-11.513-6.28v16.396h156.984v-16.396
			C979.814,303.21,977.025,308.791,977.025,308.791z"/>
		<g>
			<g>
				<polygon fill="#99653A" points="872.885,287.324 877.824,282.593 860.697,282.593 865.637,287.324 859.658,292.397 
					878.864,292.397 				"/>
				<polygon fill="#99653A" points="893.275,287.324 898.218,282.593 881.09,282.593 886.031,287.324 880.049,292.397 
					899.257,292.397 				"/>
				<polygon fill="#99653A" points="913.668,287.324 918.608,282.593 901.482,282.593 906.422,287.324 900.442,292.397 
					919.649,292.397 				"/>
				<polygon fill="#99653A" points="934.058,287.324 939.001,282.593 921.874,282.593 926.814,287.324 920.833,292.397 
					940.042,292.397 				"/>
				<polygon fill="#99653A" points="954.453,287.324 959.392,282.593 942.266,282.593 947.207,287.324 941.225,292.397 
					960.432,292.397 				"/>
			</g>
			<g>
				<polygon fill="#99653A" points="872.885,270.83 877.824,266.098 860.697,266.098 865.637,270.83 859.658,275.902 
					878.864,275.902 				"/>
				<polygon fill="#99653A" points="893.275,270.83 898.218,266.098 881.09,266.098 886.031,270.83 880.049,275.902 
					899.257,275.902 				"/>
				<polygon fill="#99653A" points="913.668,270.83 918.608,266.098 901.482,266.098 906.422,270.83 900.442,275.902 
					919.649,275.902 				"/>
				<polygon fill="#99653A" points="934.058,270.83 939.001,266.098 921.874,266.098 926.814,270.83 920.833,275.902 
					940.042,275.902 				"/>
				<polygon fill="#99653A" points="954.453,270.83 959.392,266.098 942.266,266.098 947.207,270.83 941.225,275.902 
					960.432,275.902 				"/>
			</g>
			<g>
				<rect x="857.388" y="274.467" fill="#AE7343" width="105.313" height="8.989"/>
				<rect x="853.176" y="276.873" fill="#C5804D" width="113.739" height="4.178"/>
			</g>
		</g>
		<g>
			<g>
				<polygon fill="#99653A" points="884.733,235.205 888.098,231.982 876.431,231.982 879.798,235.205 875.724,238.659 
					888.806,238.659 				"/>
				<polygon fill="#99653A" points="898.623,235.205 901.989,231.982 890.321,231.982 893.687,235.205 889.615,238.659 
					902.696,238.659 				"/>
				<polygon fill="#99653A" points="912.512,235.205 915.879,231.982 904.211,231.982 907.577,235.205 903.505,238.659 
					916.587,238.659 				"/>
				<polygon fill="#99653A" points="926.403,235.205 929.768,231.982 918.101,231.982 921.467,235.205 917.394,238.659 
					930.476,238.659 				"/>
				<polygon fill="#99653A" points="940.293,235.205 943.659,231.982 931.991,231.982 935.357,235.205 931.284,238.659 
					944.366,238.659 				"/>
			</g>
			<g>
				<polygon fill="#99653A" points="884.733,223.969 888.098,220.746 876.431,220.746 879.798,223.969 875.724,227.423 
					888.806,227.423 				"/>
				<polygon fill="#99653A" points="898.623,223.969 901.989,220.746 890.321,220.746 893.687,223.969 889.615,227.423 
					902.696,227.423 				"/>
				<polygon fill="#99653A" points="912.512,223.969 915.879,220.746 904.211,220.746 907.577,223.969 903.505,227.423 
					916.587,227.423 				"/>
				<polygon fill="#99653A" points="926.403,223.969 929.768,220.746 918.101,220.746 921.467,223.969 917.394,227.423 
					930.476,227.423 				"/>
				<polygon fill="#99653A" points="940.293,223.969 943.659,220.746 931.991,220.746 935.357,223.969 931.284,227.423 
					944.366,227.423 				"/>
			</g>
			<g>
				<rect x="874.177" y="226.447" fill="#AE7343" width="71.736" height="6.124"/>
				<rect x="871.31" y="228.086" fill="#C5804D" width="77.47" height="2.846"/>
			</g>
		</g>
		<g>
			<g>
				<polygon fill="#99653A" points="889.384,197.293 892.133,194.661 882.608,194.661 885.357,197.293 882.03,200.113 
					892.71,200.113 				"/>
				<polygon fill="#99653A" points="900.721,197.293 903.468,194.661 893.946,194.661 896.692,197.293 893.369,200.113 
					904.046,200.113 				"/>
				<polygon fill="#99653A" points="912.059,197.293 914.807,194.661 905.283,194.661 908.032,197.293 904.706,200.113 
					915.385,200.113 				"/>
				<polygon fill="#99653A" points="923.397,197.293 926.143,194.661 916.622,194.661 919.368,197.293 916.042,200.113 
					926.72,200.113 				"/>
				<polygon fill="#99653A" points="934.733,197.293 937.481,194.661 927.959,194.661 930.706,197.293 927.381,200.113 
					938.059,200.113 				"/>
			</g>
			<g>
				<polygon fill="#99653A" points="889.384,188.121 892.133,185.491 882.608,185.491 885.357,188.121 882.03,190.942 
					892.71,190.942 				"/>
				<polygon fill="#99653A" points="900.721,188.121 903.468,185.491 893.946,185.491 896.692,188.121 893.369,190.942 
					904.046,190.942 				"/>
				<polygon fill="#99653A" points="912.059,188.121 914.807,185.491 905.283,185.491 908.032,188.121 904.706,190.942 
					915.385,190.942 				"/>
				<polygon fill="#99653A" points="923.397,188.121 926.143,185.491 916.622,185.491 919.368,188.121 916.042,190.942 
					926.72,190.942 				"/>
				<polygon fill="#99653A" points="934.733,188.121 937.481,185.491 927.959,185.491 930.706,188.121 927.381,190.942 
					938.059,190.942 				"/>
			</g>
			<g>
				<rect x="880.768" y="190.144" fill="#AE7343" width="58.553" height="4.998"/>
				<rect x="878.427" y="191.481" fill="#C5804D" width="63.235" height="2.323"/>
			</g>
		</g>
		<g>
			<rect x="845.862" y="300.727" fill="#AE7343" width="128.364" height="4.742"/>
			<path fill="#C5804D" d="M964.953,291.49H855.136c0,0-2.791-5.581-11.512-6.28v16.396h132.841V285.21
				C967.744,285.908,964.953,291.49,964.953,291.49z"/>
		</g>
		<g>
			<rect x="860.348" y="262.323" fill="#AE7343" width="99.393" height="4.743"/>
			<path fill="#C5804D" d="M950.469,253.086h-80.85c0,0-2.789-5.582-11.512-6.28v16.396h103.873v-16.396
				C953.26,247.504,950.469,253.086,950.469,253.086z"/>
		</g>
		<g>
			<rect x="868.583" y="245.458" fill="#AE7343" width="82.923" height="3.958"/>
			<path fill="#C5804D" d="M943.769,237.752H876.32c0,0-2.328-4.656-9.604-5.238v13.679h86.659v-13.679
				C946.099,233.095,943.769,237.752,943.769,237.752z"/>
		</g>
		<g>
			<rect x="872.504" y="217.984" fill="#AE7343" width="75.084" height="3.583"/>
			<path fill="#C5804D" d="M940.581,211.006h-61.072c0,0-2.107-4.216-8.696-4.744v12.386h78.467v-12.386
				C942.689,206.789,940.581,211.006,940.581,211.006z"/>
		</g>
		<g>
			<rect x="878.723" y="205.243" fill="#AE7343" width="62.641" height="2.989"/>
			<path fill="#C5804D" d="M935.52,199.422h-50.95c0,0-1.76-3.518-7.257-3.958v10.334h65.462v-10.334
				C937.281,195.904,935.52,199.422,935.52,199.422z"/>
		</g>
		<g>
			<rect x="878.584" y="183.494" fill="#AE7343" width="62.923" height="3.002"/>
			<path fill="#C5804D" d="M935.635,177.647h-51.182c0,0-1.766-3.533-7.287-3.975v10.379h65.757v-10.379
				C937.403,174.114,935.635,177.647,935.635,177.647z"/>
		</g>
		<g>
			<rect x="883.797" y="172.818" fill="#AE7343" width="52.496" height="2.504"/>
			<path fill="#C5804D" d="M931.395,167.939h-42.699c0,0-1.475-2.947-6.082-3.315v8.659h54.861v-8.659
				C932.868,164.992,931.395,167.939,931.395,167.939z"/>
		</g>
		<g>
			<rect x="886.105" y="152.667" fill="#AE7343" width="47.879" height="11.635"/>
			<rect x="883.709" y="160.048" fill="#C5804D" width="52.672" height="1.736"/>
			<rect x="883.709" y="155.504" fill="#C5804D" width="52.672" height="1.735"/>
		</g>
	</g>
</g>
<g>
	<g>
		<linearGradient id="SVGID_1_" gradientUnits="userSpaceOnUse" x1="328.3147" y1="553.928" x2="336.6389" y2="553.928">
			<stop  offset="0.0012" style="stop-color:#D0D2D3"/>
			<stop  offset="1" style="stop-color:#FFFFFF"/>
		</linearGradient>
		<path fill="url(#SVGID_1_)" d="M330.163,557.402c-0.591-1.029-1.209-2.096-1.849-3.186l6.446-3.762
			c0.65,1.121,1.276,2.211,1.878,3.266L330.163,557.402z"/>
	</g>
	<path fill="#AF6C3A" d="M349.52,387.624c0,0-0.473,3.842-1.457,12.217c-0.985,8.379,1.339,7.332,0,16.406
		c-1.332,9.078-4.667,39.803-3.175,45.047c1.482,5.232,2.765,6.633,2.127,11.877c-0.645,5.229-3.607,16.473-3.235,17.18
		c0.358,0.721-12.421-10.549-12.421-10.549s-3.21-74.699-3.235-75.748c-0.044-1.041-0.472-12.24-0.472-12.24l7.55-4.189H349.52z"/>
	<path fill="#AF6C3A" d="M371.168,387.624h23.62c0,0,0.236,3.488,0,8.379c-0.234,4.885-0.234,18.154-1.982,26.533
		c-1.735,8.381-8.728,34.568-7.674,39.105c1.048,4.543,13.028,15.215,12.706,18.867c-0.31,3.656,2.257,5.578,0.014,5.223
		c-2.244-0.352-18.304-9.078-21.098-10.828c-2.789-1.732-8.394-6.109-7.867-8.639c0.527-2.527,3.676-6.711,4.371-14.043
		c0.707-7.342-0.349-28.291-0.695-36.668c-0.347-8.381,1.402-19.896,1.048-21.299C373.258,392.855,371.168,387.624,371.168,387.624"
		/>
	<path fill="#300F2E" d="M318.82,300.552c0,0,1.023,0.428,1.717,14.765c0.693,14.342,0.354,18.184,0,21.68
		c-0.347,3.484,0,10.822,0.347,15.012c0.347,4.191,2.803,7.332,1.402,12.918c-1.402,5.59-0.349,9.08-1.402,14.666
		c-1.04,5.582-7.623,3.494-2.063,10.127c5.559,6.631,8.002,6.977,11.497,8.031c3.49,1.041,11.17,0,11.17,0s7.332-4.189,8.38-5.244
		c1.048-1.041,3.843-2.787,4.189-5.59c0.346-2.789-1.4,3.842,0-9.074c1.395-12.916,2.095-18.854,2.441-21.99
		c0.354-3.148,1.4-8.379,1.4-8.379c2.797,2.789,5.586,3.836,5.586,10.469c0,6.639,3.141,10.121,2.795,14.311
		c-0.354,4.195,0.05,4.543,0.023,8.033c-0.023,3.496-1.424,5.59,1.725,6.984c3.142,1.4,6.632,0.354,8.373,1.754
		c1.749,1.389,7.687,2.088,9.428,2.088c1.747,0,8.386-1.74,10.474-3.143c2.096-1.398,4.191-2.1,4.538-3.141
		c0.359-1.047-0.347-2.797,0-4.543c0.359-1.75,0.08,1.053-2.053-7.688c-2.131-8.725-2.72-14.305-3.998-18.148
		c-1.276-3.842-0.464-27.232,0-31.422c0.473-4.192,0.93-11.871,0-13.972c-0.93-2.094-2.329-8.504-2.329-8.504
		s-0.347-0.769-2.088-3.117c-1.744-2.337-3.144-3.043-4.544-3.043c-1.389,0-9.428,1.401-9.428,1.401l-8.373,1.642
		c0,0-8.38,1.854-12.223,1.854C351.959,299.289,320.239,293.091,318.82,300.552"/>
	<path fill="#E2F7F7" d="M346.024,176.555c0,0-24.111,10.294-26.455,11.825c-2.354,1.523-4.443,1.746-5.491,6.359
		c-1.04,4.598-1.04,10.103-3.668,17.169c-2.617,7.064-3.136,11.261-3.396,14.404c-0.273,3.136,0,6.546,0,6.546h3.396h17.242
		c0,0-10.437,26.446-9.904,32.997c0.521,6.546,2.096,10.6,2.096,16.041c0,5.43,1.567,8.571,0.779,11.715
		c-0.779,3.142-3.407,3.929-1.313,8.12c2.102,4.188,3.323,4.188,8.343,7.851c5.021,3.671,11.12,2.623,17.23,3.404
		c6.118,0.793,8.133,3.929,14.851,1.314c6.72-2.628,15.879-8.642,19.028-9.435c3.144-0.781,7.859-1.302,7.859-1.302
		s1.829-1.833,2.616-3.929c0.78-2.096,1.301-1.835,1.573-3.663c0.261-1.842,0-7.071,0-7.071s-2.36-11.529-2.36-14.939
		c0-3.396-1.048-6.011-0.268-9.681c0.787-3.662,4.983-5.244,2.628-6.806c-2.36-1.574-3.147-2.096-3.408-5.771
		c-0.261-3.662-0.261-4.468-0.261-5.769c0-1.295,0.788-2.604,0.788-6.273v-7.325c0-0.521,1.04-1.835,2.354,0.779
		c1.309,2.628,2.996,7.859,4.506,10.736c1.513,2.875,5.704,2.591,6.497,2.083c0.781-0.508,3.929-2.083,5.492-3.651
		c1.574-1.567,4.455-6.024,4.71-6.812c0.271-0.781,2.095-2.883,1.313-5.231c-0.787-2.356,2.356-3.67-1.313-5.503
		c-3.663-1.835-5.231-3.67-5.231-3.67s0.521-6.806-0.521-12.563c-1.054-5.758-3.142-14.405-6.812-16.767
		c-3.662-2.354-3.929-2.875-7.853-4.449c-3.93-1.562-8.876-0.409-9.811-1.643c-0.93-1.232-2.499-1.501-3.547-1.501
		s-2.076-2.199-2.076-2.199l-9.712-9.583l-8.64,2.628L346.024,176.555z"/>
	<path fill="#BC7C49" d="M431.395,93.982c0,0,5.938-3.842,10.129,0l-9.954,135.126L407.83,486.087l6.11,5.23
		c0,0,1.39,4.725-0.526,8.207c-1.927,3.494-8.899,4.723-8.899,4.723l-5.938,57.432c0,0-7.159,2.961-11.529,0l7.165-64.592
		l-46.096-28.113c0,0-1.215-9.949,7.513-10.994l41.898,26.186L431.395,93.982z"/>
	<path fill="#BC7C49" d="M310.409,76.703c0,0,5.938-3.668,11.876-1.228c5.937,2.442,19.201,412.006,19.201,412.006
		s4.016,3.49,3.32,7.68c-0.698,4.188-2.62,6.283-2.62,6.283l1.221,75.246c0,0-5.237,4.369-10.648,0l-1.4-75.07l-10.822-15.188
		c0,0,1.574-9.779,8.026-9.953l1.929,1.748C330.491,478.228,318.789,83.509,310.409,76.703"/>
	<path fill="#BC7C49" d="M310.409,77.702c0,0,5.938-3.664,11.876-1.222c5.937,2.442,19.201,411.998,19.201,411.998
		s4.016,3.496,3.32,7.688c-0.698,4.189-2.62,6.285-2.62,6.285l1.221,75.242c0,0-5.237,4.365-10.648,0l-1.4-75.07l-10.822-15.184
		c0,0,1.574-9.781,8.026-9.955l1.929,1.748C330.491,479.232,318.789,84.506,310.409,77.702"/>
	<path fill="#AF6C3A" d="M382.964,152.129l-0.1-1.062c0,0-1.276,5.933-1.604,10.995c-0.316,5.07-0.491,6.986-2.412,12.051
		c-1.922,5.057-3.843,9.246-3.843,9.246v8.033c0,2.975-3.08,12.223-12.892,12.924c-9.805,0.699-21.848-12.397-16.09-26.621
		l2.039-0.793c0,0-1.531-4.71-3.533-8.206c-1.996-3.484-1.122-0.175-3.737-4.191c-2.628-4.017-4.712-5.403-4.363-8.547
		c0.347-3.142,2.615-4.891,2.615-4.891h3.143l4.189-5.932l1.687-2.628l4.593-3.309c0,0,7.338-2.27,8.031-2.27
		c0.707,0,8.033-1.927,8.734-1.221c0.699,0.694,4.716,1.567,4.716,1.567l4.711,2.275l2.27,2.956c0,0,1.771,1.233,1.847,1.754
		c0.05,0.312,0.037,1.142,0.019,1.742c-0.006,0.397-0.019,0.7-0.019,0.7s0.316,2.244-0.1,4.363"/>
	<linearGradient id="SVGID_2_" gradientUnits="userSpaceOnUse" x1="392.0193" y1="191.2551" x2="349.6334" y2="129.5191">
		<stop  offset="0.0012" style="stop-color:#676767"/>
		<stop  offset="0.1883" style="stop-color:#464646"/>
		<stop  offset="0.4034" style="stop-color:#282828"/>
		<stop  offset="0.6141" style="stop-color:#121212"/>
		<stop  offset="0.8161" style="stop-color:#040404"/>
		<stop  offset="1" style="stop-color:#000000"/>
	</linearGradient>
	<path fill="url(#SVGID_2_)" d="M382.865,151.067c0,0-3.669-0.867-3.142,1.575c0.514,2.442-2.797-3.67-2.797-3.67
		s-1.048-0.868-2.268,2.977c-1.228,3.829-4.363,3.308-6.112,4.535c-1.747,1.215,2.622-5.33,0-3.793c-2.621,1.52-4.711-0.482-5.409,0
		c-0.701,0.472-1.395-1.276-3.144-2.145c-1.747-0.879-3.67-2.442-3.67-2.442l-4.015-0.879c0,0,0.526,3.297,0,4.71
		c-0.521,1.4,0,3.496,0,3.496l-4.246,1.921c0,0-1.692,0.347-1.692,1.4c0,1.048-2.096,4.712-1.482,5.231
		c0.614,0.521-0.116,1.401-0.116,1.401s-3.807-8.56-4.506-11.349c-0.701-2.795-0.354-10.474-0.354-12.043
		c0-1.574,1.755-11.529,3.496-13.104c1.748-1.567,5.591-4.536,5.591-4.536s3.837-2.616,4.536-2.789
		c0.695-0.174,4.538-1.915,6.806-1.748c2.27,0.174,4.885-0.868,7.687,0.7c2.789,1.575,4.189,2.448,5.925,4.197
		c1.749,1.733,2.975,1.387,4.724,4.176c1.747,2.802,6.631,14.157,5.584,21.31C383.211,157.352,382.692,149.668,382.865,151.067"/>
	<path fill="#AF6C3A" d="M349.171,176.555c0,0,8.267,9.897,12.181,11.789c6.634,3.205,13.653-4.985,13.653-4.985
		s-0.96,7.079-5.156,9.694c-4.178,2.616-9.682,1.835-12.304,0C354.929,191.225,349.171,176.555,349.171,176.555"/>
	<path fill="#AF6C3A" d="M318.529,223.958c0.348-0.707,5.409-10.184,9.123-9.168c3.707,1.011,3.78,2.66,3.868,4.755
		c0.093,2.083,0.234,5.503,0.322,7.573c0.093,2.084,0.211,4.946,0.297,6.787c0.075,1.84,0.204,5.002,0.204,5.002
		s-3.166,2.33-4.691,2.591c-1.531,0.26-2.677,1.028-4.09,2.343c-1.413,1.313-7.389,8.133-13.152,12.322
		c-5.758,4.188-11.263-5.492-10.736-9.682c0.521-4.196,7.233-15.718,7.233-15.718h7.952
		C314.859,230.763,317.525,226.027,318.529,223.958"/>
	<path fill="#AF6C3A" d="M412.925,232.182l0.384,3.774l6.534-8.863l-0.771,8.863l-1.276,14.689c0,0-3.16,2.641-6.309,4.216
		c-3.136,1.561-11.032-4.141-12.583-8.622C397.349,241.758,411.735,240.406,412.925,232.182"/>
	<path fill="#AF6C3A" d="M434.011,229.981c0,0-8.641-1.835-9.161,1.835c-0.527,3.657,1.042,1.476,1.568,4.141
		c0.521,2.666-1.048,3.979-0.526,5.146c0.526,1.183-0.261,0.897,1.048,2.738c1.313,1.849-1.841,3.348,0.526,3.682
		c2.367,0.335,3.142,0.781,4.189,0c1.048-0.78,2.095-1.307,2.355-2.094s-0.781-1.835,0-2.883c0.78-1.048-0.174-2.114,0.049-3.806
		c0.212-1.692,0.322-1.692,0.274-4.054C434.272,232.338,434.011,229.981,434.011,229.981"/>
</g>
<g>
	<path fill="#420B4F" d="M931,480.876v5.762l5.836-2.305C936.836,484.333,931.648,481.615,931,480.876"/>
	<path fill="#EDA35F" d="M503.861,433.796c0,0-1.742,15.442-3.328,18.995c-2.377,5.343-14.238,48.079-16.023,68.837
		c-1.777,20.787-8.309,29.091-11.869,35.026c-3.566,5.933-9.499,19.577-9.499,19.577s-4.147,5.352,0,5.938
		c4.154,0.587,16.031-7.118,16.031-7.118s4.742-2.379,7.122-5.932c2.369-3.568,6.648-10.688,7.187-12.466
		c0.526-1.775,2.788-5.344,4.326-6.532c1.537-1.187,4.639-1.775,6.054-5.342c1.415-3.562,2.016,1.79,1.415-3.562
		c-0.588-5.335,0.724-9.49-1.415-12.456c-2.14-2.972-1.149-17.207,5.773-29.676c6.923-12.464,10.879-31.458,13.448-39.167
		c2.577-7.724,6.533-19.004,6.533-19.004v-10.672c0,0-1.982-5.939-3.956-6.536C523.677,423.122,503.861,433.796,503.861,433.796"/>
	<path fill="#EDA35F" d="M608.531,455.17c0,0-3.566,4.148,0,12.459c3.582,8.306,10.699,17.805,10.699,23.744v13.651
		c0,5.931-3.564,5.931,0,11.268c3.562,5.336,4.164,5.336,4.164,11.282c0,5.931-0.582,10.679,2.67,12.464
		c3.26,1.775,8.002,1.775,9.193,0c1.188-1.785,3.176-2.379,2.773-11.877c-0.404-9.498-0.992-23.725-2.182-25.214
		c-1.188-1.49-4.887-6.239-4.217-9.203c0.658-2.966,0.479-30.457-5.957-41.644C619.23,440.916,608.531,455.17,608.531,455.17"/>
	<path fill="#420B4F" d="M521.894,357.244c4.756-1.782,41.553-10.093,41.553-10.093l24.721,1.188c0,0,12.074,9.498,14.447,15.076
		c2.377,5.575,4.748,10.446,5.916,15.194c1.174,4.743,9.512,26.111,8.711,34.837c-0.799,8.719,7.922,26.284,7.922,33.414
		c0,7.12,2.377,7.12-0.596,13.653c-2.967,6.518-16.037,2.963-16.037,2.963s-14.221-4.159-17.889-7.127
		c-3.676-2.964-8.205-9.489-11.604-14.834c-3.396-5.344-9.066-16.616-8.412-21.367c0.662-4.749-14.896-7.714-17.868-5.931
		c-2.965,1.775-6.526,21.367-7.715,23.145c-1.183,1.776-14.24,13.651-19.385,14.833c0,0-4.354-4.146-14.639-10.68
		c-10.274-6.531-13.214,6.533-13.214,6.533s-2.023,1.174-3.207-5.938c-1.193-7.127-1.781-13.652,0-17.808
		c1.779-4.155-0.593-4.752,0-16.024c0.591-11.276,1.779-10.084,9.261-26.703L521.894,357.244z"/>
	<path fill="#665442" d="M592.527,222.816c0,0-11.076,0.874-15.826,2.663c-4.742,1.792-5.145,4.172-11.868,3.767
		c-6.725-0.391-6.725-4.353-11.877-2.568c-5.139,1.77-6.717-0.902-9.689,2.616c-2.965,3.512-4.94,4.306-7.715,7.078
		c-2.766,2.768-1.729,3.806-5.608,5.851c-3.89,2.063-4.278,2.459-6.261,3.649c-1.979,1.176-3.955,3.154-5.938,4.743
		c-1.975,1.583-4.742,3.716-4.742,3.716c-2.768,6.17-3.853,4.709-3.162,10.126c0.682,5.427-0.009,10.688,2.768,12.668
		c2.766,1.977,5.321,0.93,9.182,1.668c3.869,0.726,5.057,0.082,7.031,0c1.989-0.088,5.939-2.861,5.939-2.861l3.17-1.579
		l-0.799,12.668c0,0-3.158,2.364-7.511,18.586s-4.353,17.411-5.541,24.532c-1.197,7.128,0.794,5.541-1.976,11.082
		c-2.774,5.533-3.565,6.328-5.151,9.882c-1.579,3.573-2.769,6.342-3.56,8.31c-0.785,1.979-3.76,5.944-3.76,5.944
		s59.155,17.8,74.981,18.586h4.688l1.332-10.276l1.893-12.67c0,0,4.646,6.73,3.117,11.481c-1.537,4.741,1.414,7.521,2.711,8.306
		c1.293,0.795,3.67,2.769,6.445,3.159c2.766,0.404,9.096,0,9.096,0s-2.379-9.895-2.768-14.636
		c-0.396-4.752-4.354-19.382-4.354-19.382s0-24.53-0.396-28.097c-0.395-3.552,1.939-12.655,2.152-16.618
		c0.217-3.949,0.227-6.723,2.986-10.276c2.773-3.565,3.533-6.737,5.725-6.737c2.193,0,6.541-2.372,7.334-5.932
		c0.791-3.56,2.371-7.912,3.17-12.257c0.785-4.361,1.975-6.733,2.766-10.689c0.787-3.956,1.58-0.395,0.787-3.956
		c-0.787-3.559-0.881-3.811-3.957-6.606c-3.066-2.788-12.654-12.779-14.24-13.572c-1.584-0.791-9.498-8.308-11.471-8.506
		C599.648,226.479,592.527,222.816,592.527,222.816"/>
	<path fill="#EDA35F" d="M637.927,224.305c0,0-0.029,2.337-2.406,7.087c-2.367,4.75-1.541,4.739-4.514,8.595
		c-2.959,3.853-4.826,6.165-6.016,7.95c-1.188,1.775-5.586,4.727-5.586,4.727s-9.371,2.199-12.938,1.613
		c-3.561-0.604-8.898-1.777-10.682-1.491c-1.783,0.295-4.674-2.076-6.492-1.774c-1.816,0.3-5.965-1.182-6.867-1.785
		c-0.889-0.594-2.965-3.259-3.26-4.156c-0.299-0.888,0-5.76,0-5.76l2.973-6.408c0,0,3.26-3.26,4.148-3.854
		c0.895-0.601,3.006-3.266,3.006-3.568c0-0.286,3.527-1.774,3.232-2.663c-0.299-0.888-0.594-2.379-0.299-3.561
		c0.299-1.188,1.48-3.858,1.48-4.748c0-0.889,1.492-2.373,2.379-2.08c0.887,0.303,3.854,2.38,5.043,2.08
		c1.191-0.302,1.646,0,7.354,0.3c5.705,0.294,9.852-0.887,12.525,0.59c2.67,1.488,9.205,2.377,10.984,3.266
		C633.771,219.549,638.816,220.437,637.927,224.305"/>
	<linearGradient id="SVGID_3_" gradientUnits="userSpaceOnUse" x1="590.6355" y1="208.4431" x2="643.8523" y2="208.4431">
		<stop  offset="0.0012" style="stop-color:#676767"/>
		<stop  offset="1" style="stop-color:#000000"/>
	</linearGradient>
	<path fill="url(#SVGID_3_)" d="M599.052,221.625c0-0.888,0.957-4.31,0-6.229c-0.949-1.915-2.965-2.97-2.965-2.97l-2.645,3.274
		l-1.215,3.554c-1.49-4.448,0.594-9.196,0-10.378c-0.59-1.203-3.268-2.079,0-4.457c3.258-2.377,3.258-3.86,5.041-5.931
		c1.783-2.077,3.566-3.567,4.455-4.168c0.883-0.588,4.449-1.776,5.338-1.776c0.895,0,4.455-1.778,6.23-0.889
		c1.783,0.889,4.162-1.188,6.232,0.889c2.076,2.078,5.938,0.3,8.611,2.967c2.664,2.679,4.447,3.565,7.414,5.644
		c2.973,2.076,0-1.482,2.973,2.076c2.963,3.566,3.559,2.672,3.852,7.121c0.293,4.454-2.664-2.679,0.293,4.454
		c2.973,7.121-0.586,6.818-0.586,6.818l-4.051,1.491l-1.219,2.362l-4.818-4.139c0,0-5.34,2.965-7.418,0.588
		c-2.086-2.379-7.121-5.938-8.91-5.938c-1.777,0-6.254,1.783-7.135,1.783c-0.875,0-4.135-0.595-5.324,0.301
		C602.019,218.954,599.052,221.625,599.052,221.625"/>
	<path fill="#EDA35F" d="M592.228,226.677v12.462c0,0,7.393,14.154,16.303,15.095c0,0-16.529-0.854-19.229-3.223
		C586.59,248.632,589.261,231.72,592.228,226.677"/>
	<path fill="#EDA35F" d="M509.827,268.025c0,0-9.901,16.468-16.278,24.953c-3.873,5.146-12.996,14.611-15.763,16.194
		c-2.773,1.587-7.122,1.587-7.122,4.348c0,2.773-1.591,5.533,0,6.729c1.58,1.183,2.271,2.618,2.769,3.955
		c1.188,3.158-0.888,4.976,0.793,5.537c4.742,1.585,8.699-1.982,10.283-3.562c1.586-1.577,5.632-3.955,5.386-5.54
		c-0.24-1.586,1.345-4.346,2.528-6.328c1.188-1.979,28.883-26.847,33.236-34.793C525.659,279.518,513.003,278.697,509.827,268.025"
		/>
	<path fill="#EDA35F" d="M590.642,254.33c0,0-62.614-33.386-68.544-35.764c-5.931-2.379-18.989,3.144-18.204,6.912
		c0.794,3.767,4.75,1.198,4.75,1.198s2.773,6.054,2.773,6.684c0,0.635,1.586,1.796,2.768,2.801c1.189,0.996,2.769,1.394,3.166,2.584
		c0.395,1.181,1.188,0.646,3.162,1.715c1.981,1.05-2.365,0.654,1.981,1.05c4.353,0.398,12.655,1.192,14.249,1.587
		c1.577,0.396,44.708,37.581,49.45,36.393C590.943,278.309,602.095,263.582,590.642,254.33"/>
	<path fill="#6D4625" d="M922.316,447.229c0,0,0.049,30.806,12.32,36.342c12.258,5.533,37.871-8.311,38.498-10.69
		c0.619-2.377-16.742-17.008-16.742-17.008L922.316,447.229z"/>
	<path fill="#6D4625" d="M973.135,472.88c-3.166,6.274-17.111,5.618-31.146-1.467c-14.027-7.093-22.842-17.924-19.672-24.185
		c3.172-6.277,17.109-5.614,31.146,1.464C967.49,455.784,976.297,466.611,973.135,472.88"/>
	<path fill="#C5804D" d="M968.179,470.127c-2.617,5.173-14.096,4.627-25.666-1.217c-11.568-5.841-18.82-14.75-16.217-19.931
		c2.611-5.167,14.107-4.62,25.668,1.216C963.527,456.038,970.783,464.954,968.179,470.127"/>
	<g>
		<g>
			<linearGradient id="SVGID_4_" gradientUnits="userSpaceOnUse" x1="752.3318" y1="462.4993" x2="834.8848" y2="555.0587">
				<stop  offset="0.0012" style="stop-color:#231F20"/>
				<stop  offset="1" style="stop-color:#603813"/>
			</linearGradient>
			<path fill-rule="evenodd" clip-rule="evenodd" fill="url(#SVGID_4_)" d="M901.59,473.079c0.137-0.695,0.273-1.361,0.223-0.772
				c0.066-0.61,0.121-1.221,0.131-1.835c0.002-0.071,0.002-0.143,0.002-0.214c-5.176-8.056-10.352-16.109-15.51-24.176
				c-11.65-18.213-23.506-36.281-36.678-53.458c-11.742-15.302-24.752-29.368-39.67-41.642
				c-19.918-16.396-41.959-29.258-65.564-39.525c-19.521-8.491-39.787-14.825-60.197-20.75
				c-19.395-5.628-38.762-11.357-58.154-16.987c-14.455-4.2-27.82-10.591-39.85-19.662c-7.057-5.312-14.031-10.737-21.016-16.144
				c-4.677-3.62-9.273-7.37-14.92-9.448c-6.123-2.255-11.859-5.234-17.26-8.897c-3.042-2.063-6.336-3.672-9.945-4.531
				c-1-0.24-2.014-0.427-3.021-0.635h-7.256c-0.397,0.089-0.803,0.16-1.195,0.271c-1.758,0.485-3.575,0.816-5.245,1.51
				c-2.313,0.956-3.711,2.841-3.54,5.375c0.153,2.337,0.425,4.766,1.22,6.944c3.254,8.929,7.958,17.1,13.51,24.808
				c2.627,3.642,5.298,7.285,7.578,11.145c3.041,5.141,3.831,10.779,2.434,16.629c-0.851,3.554-2.997,6.405-5.476,8.958
				c-5.464,5.624-9.975,11.936-14.107,18.572c-2.414,3.882-5.174,7.553-7.842,11.273c-1.438,2.007-3.309,3.579-5.729,4.226
				c-3.561,0.955-7.144,1.896-10.77,2.568c-2.655,0.491-5.396,0.516-8.063-0.209c-2.146-0.585-2.739-1.724-1.764-3.712
				c0.6-1.221,1.38-2.388,2.259-3.427c2.473-2.924,4.724-5.937,5.303-9.916c0.233,0.363,0.314,0.717,0.453,1.049
				c0.713,1.724,1.285,3.526,2.205,5.129c1.157,2.022,3.05,3.189,5.417,3.339c2.491,0.156,4.896-0.303,7.155-1.397
				c3.42-1.655,4.258-3.54,3.241-7.382c-0.688,0.303-1.373,0.58-2.035,0.899c-1.55,0.748-2.899,0.393-4.147-0.68
				c-2.568-2.205-4.849-9.096-1.833-13.013c-0.651-0.808-1.316-1.626-1.974-2.438c-4.976,3.404-3.274,16.906,4.474,19.893
				c-1.051,0.303-2.116,0.601-3.2,0.688c-2.663,0.21-3.842-0.479-4.928-2.875c-0.495-1.086-0.863-2.249-1.184-3.405
				c-0.825-3.026-1.597-6.068-2.444-9.311c-2.414,2.333-3.673,4.894-4.282,7.807c-0.629,3.008-1.631,5.824-3.771,8.161
				c-1.91,2.088-3.575,4.37-4.499,7.099v2.752c0.77,2.007,2.206,3.308,4.262,3.865c1.038,0.285,2.11,0.537,3.179,0.604
				c6.38,0.414,12.51-0.795,18.464-3.023c2.295-0.859,4.351-2.096,5.882-4.068c1.864-2.402,3.907-4.691,5.529-7.246
				c5.646-8.909,11.459-17.649,18.752-25.375c5.753-6.093,6.6-13.586,4.55-21.493c-1.241-4.807-3.817-8.944-6.774-12.842
				c-4.771-6.282-9.209-12.762-12.735-19.838c-2.057-4.136-4.196-8.236-4.93-12.876c-0.446-2.822,0.257-4.021,3.043-4.802
				c4.251-1.187,8.574-1.161,12.873-0.341c3.407,0.645,6.411,2.332,9.25,4.232c5.423,3.632,11.15,6.619,17.257,8.925
				c3.396,1.281,6.568,3.019,9.459,5.262c7.995,6.213,15.973,12.45,24.053,18.554c11.404,8.607,23.666,15.658,37.42,19.856
				c12.998,3.968,25.975,8.007,39.023,11.796c19.277,5.6,38.672,10.798,57.68,17.297c23.594,8.063,46.17,18.267,67.23,31.7
				c18.521,11.815,35.221,25.781,49.83,42.211c11.152,12.544,21.211,25.95,30.484,39.911c12.217,18.392,24.113,37.005,36.135,55.529
				C900.564,473.426,901.082,473.268,901.59,473.079z"/>
		</g>
	</g>
</g>
<g>
	<path fill="#AF6C3A" d="M782.898,494.787c0,0,4.341,0.693,2.903,7.433c-1.43,6.738-2.501,16.069-4.965,16.65
		c-2.472,0.581-8.886,4.972-14.63,6.324c-5.746,1.349-20.417,4.729-21.189,7.433c-0.774,2.702-1.347,7.097-3.933,12.158
		c-2.581,5.075-1.586,6.086-2.598,8.45c-0.996,2.364,1.457,4.652,0,5.742c-4.039,3.04-4.716,3.04-6.402,3.04
		c-1.692,0-4.061,1.689-5.071,1.018c-1.011-0.678-1.354,0.318-3.374,0.157c-2.03-0.157-2.82,0.837-4.446,0
		c-1.638-0.835-2.372-2.187-2.372-2.187s-1.415-1.017,0-2.706c1.409-1.688,1.3-2.7,2.372-4.728c1.062-2.025,1.737-2.701,2.752-5.407
		c1.013-2.702,2.704-10.809,3.715-12.836c1.021-2.026,2.955-8.447,2.955-8.447s1.441-1.688,3.127-3.04
		c1.689-1.354,5.728-3.04,6.745-4.391c1.026-1.35,4.936-4.053,6.53-5.067c1.593-1.017,11.729-9.355,11.729-9.355
		s2.782-3.148,6.118-5.852c3.342-2.704,16.851-5.912,16.851-5.912L782.898,494.787z"/>
	<path fill="#AF6C3A" d="M794.109,419.097l29.532,12.17c0,0,24.664-4.644,27.708-3.675c3.036,0.979,12.837,5.032,13.848,7.394
		c1.014,2.367,1.691,6.758,1.691,7.774c0,1.012-0.678,5.94-2.702,7.363c-2.03,1.417-3.38,1.042-4.059,0.553
		c-0.678-0.487-2.7,2.892-4.054,2.892c-1.353,0-2.024-2.892-2.024-2.892s2.697-4.877,2.697-5.894c0-1.011-2.025-4.052-2.025-4.052
		l-3.042-1.355c0,0-4.391,0-6.753,1.355c-2.368,1.353-16.893,5.633-16.893,5.633s-28.04-6.988-30.74-8.336
		c-2.71-1.353-7.774-1.694-7.774-1.694S791.61,420.102,794.109,419.097"/>
	<path fill="#AF6C3A" d="M708.903,462.839c0,0-3.177,12.352-5.2,17.422c-2.027,5.065-19.934,23.533-20.608,24.768
		c-0.681,1.244-1.688,4.623-2.369,5.637c-0.672,1.012-2.362,3.38-4.049,4.056c-1.691,0.678-3.719,1.691-6.086,0
		c-2.357-1.691-2.7,1.014-4.39-2.368c-1.686-3.376-2.028-6.534-2.368-7.324c-0.335-0.783,0-2.809,0-4.158
		c0-1.352,1.354-3.719,1.354-3.719c2.368-1.354,5.404-1.689,6.418-1.354c1.018,0.342,4.056,0,4.056,0s11.148-15.201,12.837-18.248
		c1.688-3.034,4.924-18.575,7.362-21.617c2.436-3.044,10.883-5.81,10.883-5.81l6.082,10.498L708.903,462.839z"/>
	<path fill="#AF6C3A" d="M760.498,384.357c0,0,0.617,1.995,0,3.984c-0.158,0.512-0.31,0.952-0.461,1.369
		c-0.441,1.219-0.845,2.165-1.07,3.539c-0.304,1.844,1.228,3.224-0.616,3.224c-1.841,0-3.066-0.154-3.523,0
		c-0.466,0.151-0.466,3.987-0.92,5.368c-0.463,1.381-0.921,3.833-0.921,4.293c0,0,1.07,1.229,1.683,1.995
		c0.615,0.766,0.464,6.285-0.77,9.049c-1.222,2.761-4.597,8.433-8.275,9.047c-3.685,0.61-6.594,3.07-9.206-0.611
		c-2.607-3.683-6.439-9.201-6.595-10.125c-0.151-0.921-1.072-2.144-1.072-2.604c0-0.461-0.306-0.927,0-1.994
		c0.306-1.079-0.136-6.749-0.136-6.749s-3.7-3.991-4.006-5.363c-0.302-1.383-0.613,2.296-2.146,0.611
		c-1.532-1.691-1.225-1.231-1.997-2.611c-0.76-1.38-0.919-1.227-1.379-2.452c-0.459-1.227-1.346-1.987-1.229-3.53
		c0.122-1.541-1.709-2.785-0.775-3.388c0.93-0.596,2.004-4.277,2.004-4.277s-0.148-4.445,0-4.908
		c0.158-0.464,0.307-1.531,0.924-2.605c0.611-1.078,1.687-3.226,2.147-3.683c0.46-0.46,1.838-1.997,2.911-5.676
		c1.076-3.679,17.178,0,17.178,0s7.819,0.917,8.281,1.227c0.46,0.31,3.528,1.379,3.99,2.301c0.458,0.92,3.063,3.542,3.063,4.761
		c0,1.221,1.991,3.828,1.84,4.751C759.267,380.211,760.498,384.357,760.498,384.357"/>
	<linearGradient id="SVGID_5_" gradientUnits="userSpaceOnUse" x1="745.6453" y1="407.7092" x2="737.962" y2="372.037">
		<stop  offset="0.0012" style="stop-color:#676767"/>
		<stop  offset="1" style="stop-color:#000000"/>
	</linearGradient>
	<path fill="url(#SVGID_5_)" d="M746.081,358.13c-0.589,0.487-5.214-0.155-7.208-0.461c-1.994-0.304-4.754-0.459-6.134,0
		c-1.381,0.461-2.147-0.918-5.059,1.15c-2.916,2.071-3.377,1.92-5.829,4.214c-2.454,2.305-3.219,2.459-4.45,4.452
		c-1.226,1.99-2.758,1.998-2.758,3.984c0,1.997-1.072,0.463-0.151,5.222c0.916,4.749,1.072,3.52,1.531,6.281
		c0.461,2.762,0.306,2.147,0.919,3.988c0.619,1.843,0.155,1.688,1.844,2.914s3.065,0.769,3.372,1.841c0,0,1.834-3.678,1.686-4.906
		c-0.155-1.227,0.148-3.066,0-4.599c-0.155-1.535-0.155-3.833-0.305-4.76c-0.156-0.921-0.457-3.203,0-2.9
		c0.453,0.298,1.837-1.394,1.837-1.394l2.152-0.762l1.072,0.306c0,0-0.31,3.218-0.151,4.448c0.151,1.229,0.151,3.37,0.306,2.912
		c0.15-0.462,1.196-6.595,1.196-6.595l1.716-1.997v1.844c0,0-0.764,3.224-0.309,2.915c0.465-0.31,1.686-3.373,2.297-3.679
		c0.621-0.307,1.236,2.001,1.236,2.001l-0.309,2.599l1.841-4.448l1.383-1.38l0.146,3.229l1.841-1.695l0.921-2.301
		c0,0,1.382,1.378,1.228,1.995c-0.15,0.607,0.769,1.223,0.769,1.223l1.075,2.607c0,0,0.612,2.148,0.307,1.071
		c-0.307-1.071,0.457-5.056,0.457-5.056l1.226-2.149v4.305l2.459,1.678l0.305-3.071c1.073,0.464,1.993,0.327,1.993,1.394
		s-0.306,0.447,0,1.066c0.309,0.611,1.686-1.996,1.686-1.996s1.532,2.455,0.918,3.376c-0.611,0.914-0.3,0.762,0,1.993
		c0.31,1.221,0.769-0.308,1.229,2.45c0.464,2.762,1.078,4.754,0.921,6.44c-0.151,1.692,0.77,1.534,0.77,1.534l4.293-3.681
		l2.452,1.687l-0.764-5.828c0,0,0.764-2.759,0.764-3.834c0-1.067,0.153-1.67,0-3.208c-0.157-1.543-0.764-4.459-0.764-4.459
		s-0.772-2.759-1.841-4.143c-1.077-1.378-0.923-2.916-2.307-3.983c-1.374-1.075-4.139-2.765-4.139-2.765
		S748.686,355.98,746.081,358.13"/>
	<path fill="#AF6C3A" d="M728.615,404.142c0,0,5.646,6.711,11.027,7.205c5.159,0.475,12.039-4.463,13.915-8.288
		c0,0-5.633,18.261-11.158,16.723C736.877,418.25,730.165,407.823,728.615,404.142"/>
	<path fill="#E2F7F7" d="M728.755,412.885c0,0,10.562,13.557,17.855,8.925c7.289-4.632,8.059-13.681,8.059-13.681
		s19.643-0.248,26.063,3.34c6.422,3.583,14.719,8.407,14.719,8.407s-3.571,8.694-3.571,16.799c0,8.107-2.36,5.068-2.36,5.068
		s-11.154-4.729-11.826-1.688c-0.676,3.041-2.028,10.133-3.382,16.895c-1.347,6.754-1.686,9.793-1.009,12.155
		c0.669,2.366,1.684,6.085,2.362,7.435c0.675,1.357,3.039,2.367,2.028,4.057c-1.017,1.69-4.391,0.677-7.096,4.054
		c-2.704,3.377-4.783,6.083-9.828,6.083c-5.037,0-9.091-1.356-12.806-0.679c-3.721,0.679-1.589,2.367-6.879,3.382
		c-5.286,1.009-4.947-1.015-9.004-0.343c-4.057,0.679-7.095-0.672-8.779,3.379c-1.692,4.059-2.367,12.169-3.386,6.758
		c-1.014-5.404-3.378-5.067-1.346-11.151c2.024-6.08,6.079-5.739,4.731-9.457c-1.356-3.715-1.356-6.082-1.692-8.449
		c-0.342-2.361-1.015-6.754-1.693-9.119c-0.667-2.363-1.928-4.389-2.142-5.739c-0.219-1.354-0.953-8.641-0.953-8.641
		s-1.077,4.585-2.701,7.287c-1.631,2.704-2.643,6.754-2.643,6.754s-9.467-7.153-13.183-8.138l-3.712-0.983
		c0,0,6.078-28.002,12.159-32.433C711.665,419.578,728.799,407.333,728.755,412.885"/>
	<path fill="#51391C" d="M672.961,500.531l-23.989-52.709c0,0-3.379-3.418-6.419,2.854l24.327,49.855H672.961z"/>
	<path fill="#300F2E" d="M743.683,519.448c0.668-0.603,6.309,0,11.708-2.025c5.409-2.027,8.111-4.729,9.802-6.758
		c1.686-2.027,9.797-10.137,12.158-12.163c2.366-2.029,6.422-2.362,6.422-2.362l2.367,4.389c0,0-2.704,14.013-3.716,15.114
		c-1.014,1.109-4.06,3.806-4.06,3.806s27.373-6.416,31.423-7.771c4.054-1.35,10.136-1.35,10.472-2.36
		c0.343-1.015-3.712-3.719-2.022-8.788c1.687-5.066,4.391-10.812,6.415-14.188c2.028-3.376,5.749-11.74,8.45-12.627
		c2.703-0.884,8.782-7.646,9.8-7.646c1.011,0,2.361,0.336,3.375,0c1.012-0.343-0.335-5.742-3.375-5.742
		c-3.042,0-3.721-0.678-6.76-0.678c-3.04,0-26.69,9.458-33.112,12.164c-6.417,2.704-18.579,8.11-21.959,8.445
		c-3.378,0.34-5.743,1.578-5.743,1.578s-26.695-0.039-28.718,1.045c-2.027,1.096-11.153,7.179-14.865,6.667
		c-3.721-0.503-6.415,0.17-7.769,1.522s-3.046,2.024-3.384,4.057c-0.337,2.025-1.69,7.314-1.344,9.906
		c0.335,2.591,3.035,13.067,3.374,14.416c0.335,1.354,2.363,4.394,3.377,4.394c1.017,0,0.835,3.04,2.615,3.04h5.833
		C734.448,526.882,741.427,521.479,743.683,519.448"/>
	<path fill="#AF6C3A" d="M846.542,464.524c0,0,3.793,5.685,3.453,9.189c-0.337,3.505-7.093,21.411-9.124,26.815
		c-2.028,5.409-18.243,39.531-12.67,43.586c5.572,4.051,21.794,10.811,24.834,10.472c3.039-0.339,4.729-2.681,5.068,0.012
		c0.339,2.695,4.388,4.72,0,5.059c-4.393,0.333-4.393-0.339-7.769-0.339c-3.379,0-6.422,0.526-8.45,0.432
		c-2.024-0.093-8.782-1.782-11.148-1.449c-2.37,0.339-5.408,3.039-9.462,3.382c-4.053,0.336-15.536-2.025-15.201-4.731
		c0.337-2.703,1.689-9.12,2.024-10.137c0.343-1.012,9.491-33.397,10.158-36.729c0.662-3.333,0.993-11.922,1.332-16.817
		c0.336-4.901,2.025-12.671,4.394-15.374c2.36-2.703,9.121-8.788,9.121-8.788l7.769-4.582
		C840.871,464.524,844.543,460.925,846.542,464.524"/>
</g>
</svg>
